<svg width="200" height="50" viewBox="0 0 200 50" fill="none" xmlns="http://www.w3.org/2000/svg">
<g filter="url(#filter0_d_1_22)">
<path d="M2 39.5207V1.83471L23.2586 0L28.2962 2.47934V10.562L15.7526 11.6033V14.6777L21.445 14.1818L26.4826 16.6612V24.7438L15.7526 25.6364V41.2066L7.03758 42L2 39.5207ZM20.9413 21.8182V14.7273L10.2113 15.6198V8.67769L22.7548 7.63636V0.545453L2.50376 2.28099V39.0248L10.2113 38.3306V22.7107L20.9413 21.8182Z" fill="white"/>
<path d="M31.9889 39.2727V12.0496L40.0994 11.3058L41.3588 11.9008C42.3663 10.9091 43.5418 10.3636 44.8851 10.2645H45.54C46.1109 10.2645 46.6483 10.314 47.152 10.4132C47.6558 10.4793 48.1428 10.562 48.6129 10.6612L53.6505 13.1405L54.6077 21.6694C53.0628 21.0744 51.753 20.7769 50.6783 20.7769C50.5104 20.7769 50.3257 20.7769 50.1242 20.7769C49.9563 20.7769 49.7884 20.7934 49.6205 20.8264C48.8144 20.8926 48.0756 21.1901 47.4039 21.719C46.7322 22.2479 46.1949 22.9256 45.7919 23.7521C45.4225 24.5455 45.2378 25.3719 45.2378 26.2314V41.0083L37.0265 41.7521L31.9889 39.2727ZM39.6964 23.7521C39.6964 22.7934 39.9147 21.8843 40.3513 21.0248C40.7879 20.1322 41.3756 19.405 42.1145 18.843C42.8533 18.2479 43.6593 17.9174 44.5325 17.8512C44.734 17.8182 44.9355 17.8017 45.137 17.8017C45.3385 17.8017 45.5232 17.8017 45.6911 17.8017C46.2957 17.8017 46.8498 17.8678 47.3535 18C47.8909 18.0992 48.4282 18.2479 48.9656 18.4463L48.1092 11.1074C47.8069 11.0413 47.4375 10.9752 47.0009 10.9091C46.5643 10.8099 46.0774 10.7603 45.54 10.7603H44.9355C43.7601 10.8595 42.6686 11.3884 41.6611 12.3471C40.6872 13.2727 40.0491 14.4628 39.7468 15.9174H39.5957V11.8512L32.4927 12.4959V38.7769L39.6964 38.1322V23.7521Z" fill="white"/>
<path d="M56.0815 32.7617C56.0815 28.9187 59.2481 26.4564 65.5815 25.3747L70.1797 24.6488C70.1797 23.7948 70.1074 23.2254 69.9628 22.9408C69.8182 22.6276 69.4711 22.4711 68.9217 22.4711C68.4011 22.4711 67.8806 22.6988 67.36 23.1543C66.8395 23.6097 66.3478 23.8375 65.8851 23.8375H58.5107C57.8745 23.8375 57.5563 23.5386 57.5563 22.9408C57.5563 22.3145 57.7732 21.6598 58.207 20.9766C58.6697 20.2649 59.3204 19.5675 60.1591 18.8843C61.0267 18.2011 62.2268 17.6318 63.7596 17.1763C65.3212 16.7208 67.0564 16.4931 68.9651 16.4931C72.8403 16.4931 75.7467 17.2902 77.6843 18.8843C79.6219 20.4784 80.5907 22.7557 80.5907 25.7163V37.9711C80.5907 38.2842 80.475 38.5546 80.2436 38.7824C80.0123 39.0101 79.7375 39.124 79.4194 39.124H71.8281C71.51 39.124 71.2352 39.0101 71.0039 38.7824C70.7725 38.5546 70.6568 38.2842 70.6568 37.9711V36.7755C69.2976 38.6258 67.3167 39.551 64.7139 39.551C62.1112 39.551 60.0145 38.9105 58.4239 37.6295C56.8623 36.32 56.0815 34.6974 56.0815 32.7617ZM67.4902 33.2314C69.3699 33.2314 70.3098 32.1212 70.3098 29.9008L67.7504 30.4559C66.478 30.7406 65.8418 31.2672 65.8418 32.0358C65.8418 32.3774 65.9864 32.6621 66.2756 32.8898C66.5647 33.1175 66.9696 33.2314 67.4902 33.2314Z" fill="white"/>
<path d="M110.242 26.186V37.9711C110.242 38.2842 110.126 38.5546 109.895 38.7824C109.663 39.0101 109.389 39.124 109.07 39.124H100.785C100.467 39.124 100.192 39.0101 99.9608 38.7824C99.7294 38.5546 99.6138 38.2842 99.6138 37.9711V26.4848C99.6138 24.9192 98.8908 24.1364 97.4448 24.1364C95.9988 24.1364 95.2759 24.9192 95.2759 26.4848V37.9711C95.2759 38.2842 95.1602 38.5546 94.9288 38.7824C94.6975 39.0101 94.4227 39.124 94.1046 39.124H85.8626C85.5445 39.124 85.2697 39.0101 85.0384 38.7824C84.807 38.5546 84.6913 38.2842 84.6913 37.9711V18.073C84.6913 17.7599 84.807 17.4894 85.0384 17.2617C85.2697 17.034 85.5445 16.9201 85.8626 16.9201H93.4539C93.7721 16.9201 94.0468 17.034 94.2781 17.2617C94.5095 17.4894 94.6252 17.7599 94.6252 18.073V19.4821C95.3771 18.5996 96.3893 17.888 97.6617 17.3471C98.9631 16.7778 100.351 16.4931 101.826 16.4931C104.197 16.4931 106.193 17.3186 107.812 18.9697C109.432 20.5923 110.242 22.9977 110.242 26.186Z" fill="white"/>
<path d="M123.281 39.124H115.516C115.198 39.124 114.923 39.0101 114.692 38.7824C114.461 38.5546 114.345 38.2842 114.345 37.9711V18.073C114.345 17.7599 114.461 17.4894 114.692 17.2617C114.923 17.034 115.198 16.9201 115.516 16.9201H123.281C123.599 16.9201 123.874 17.034 124.105 17.2617C124.337 17.4894 124.452 17.7599 124.452 18.073V37.9711C124.452 38.2842 124.337 38.5546 124.105 38.7824C123.874 39.0101 123.599 39.124 123.281 39.124ZM124.236 8.67906V13.8457C124.236 14.1589 124.12 14.4293 123.888 14.657C123.657 14.8848 123.382 14.9986 123.064 14.9986H115.733C115.415 14.9986 115.14 14.8848 114.909 14.657C114.678 14.4293 114.562 14.1589 114.562 13.8457V8.67906C114.562 8.36593 114.678 8.0955 114.909 7.86777C115.14 7.64004 115.415 7.52617 115.733 7.52617H123.064C123.382 7.52617 123.657 7.64004 123.888 7.86777C124.12 8.0955 124.236 8.36593 124.236 8.67906Z" fill="white"/>
<path d="M154.081 24.1364C153.618 24.1364 153.213 24.3072 152.866 24.6488C152.548 24.9904 152.389 25.5028 152.389 26.186V37.9711C152.389 38.2842 152.273 38.5546 152.042 38.7824C151.811 39.0101 151.536 39.124 151.218 39.124H143.583C143.265 39.124 142.99 39.0101 142.759 38.7824C142.527 38.5546 142.412 38.2842 142.412 37.9711V26.4848C142.412 24.9192 141.833 24.1364 140.677 24.1364C140.185 24.1364 139.766 24.3214 139.419 24.6915C139.1 25.0331 138.941 25.517 138.941 26.1433V37.9711C138.941 38.2842 138.826 38.5546 138.594 38.7824C138.363 39.0101 138.088 39.124 137.77 39.124H129.962C129.644 39.124 129.369 39.0101 129.138 38.7824C128.906 38.5546 128.791 38.2842 128.791 37.9711V18.073C128.791 17.7599 128.906 17.4894 129.138 17.2617C129.369 17.034 129.644 16.9201 129.962 16.9201H137.119C137.438 16.9201 137.712 17.034 137.944 17.2617C138.175 17.4894 138.291 17.7599 138.291 18.073V19.4821C138.869 18.742 139.693 18.073 140.763 17.4752C141.949 16.8205 143.279 16.4931 144.754 16.4931C147.935 16.4931 150.075 17.6602 151.174 19.9945C151.868 18.9982 152.823 18.1726 154.037 17.5179C155.252 16.8347 156.51 16.4931 157.811 16.4931C160.154 16.4931 162.062 17.3044 163.537 18.927C165.041 20.5496 165.793 22.9692 165.793 26.186V37.9711C165.793 38.2842 165.677 38.5546 165.446 38.7824C165.215 39.0101 164.94 39.124 164.622 39.124H156.987C156.669 39.124 156.394 39.0101 156.163 38.7824C155.932 38.5546 155.816 38.2842 155.816 37.9711V26.4848C155.816 24.9192 155.237 24.1364 154.081 24.1364Z" fill="white"/>
<path d="M192.829 30.5413H179.902V30.7548C179.902 32.4913 180.466 33.3595 181.594 33.3595C181.912 33.3595 182.302 33.1318 182.765 32.6763C183.228 32.2208 183.734 31.9931 184.283 31.9931H192.482C193.118 31.9931 193.436 32.3062 193.436 32.9325C193.436 34.3274 192.366 35.7792 190.226 37.2879C188.115 38.7966 185.237 39.551 181.594 39.551C177.979 39.551 175.014 38.6258 172.701 36.7755C170.416 34.8967 169.274 32.3205 169.274 29.0468V26.9972C169.274 23.8944 170.445 21.3751 172.788 19.4394C175.13 17.4752 178.196 16.4931 181.984 16.4931C185.801 16.4931 188.751 17.5891 190.833 19.781C192.944 21.9729 194 24.7484 194 28.1074V29.3884C194 29.7016 193.884 29.972 193.653 30.1997C193.422 30.4275 193.147 30.5413 192.829 30.5413ZM183.372 25.0331C183.372 23.3251 182.794 22.4711 181.637 22.4711C180.48 22.4711 179.902 23.3251 179.902 25.0331V25.2039H183.372V25.0331Z" fill="white"/>
</g>
<defs>
<filter id="filter0_d_1_22" x="0" y="0" width="200" height="50" filterUnits="userSpaceOnUse" color-interpolation-filters="sRGB">
<feFlood flood-opacity="0" result="BackgroundImageFix"/>
<feColorMatrix in="SourceAlpha" type="matrix" values="0 0 0 0 0 0 0 0 0 0 0 0 0 0 0 0 0 0 127 0" result="hardAlpha"/>
<feOffset dx="2" dy="4"/>
<feGaussianBlur stdDeviation="2"/>
<feComposite in2="hardAlpha" operator="out"/>
<feColorMatrix type="matrix" values="0 0 0 0 0.366667 0 0 0 0 0.366667 0 0 0 0 0.366667 0 0 0 0.44 0"/>
<feBlend mode="normal" in2="BackgroundImageFix" result="effect1_dropShadow_1_22"/>
<feBlend mode="normal" in="SourceGraphic" in2="effect1_dropShadow_1_22" result="shape"/>
</filter>
</defs>
</svg>
